<svg xmlns="http://www.w3.org/2000/svg" viewBox="0 0 122.95 150"><defs><style>.cls-1{fill:#f89f1b;}.cls-2{fill:#fff;}.cls-3,.cls-4{fill:#231f20;}.cls-4{fill-rule:evenodd;}</style></defs><title>pegi_12</title><g id="Layer_2" data-name="Layer 2"><g id="Layer_1-2" data-name="Layer 1"><g id="PEGI_repeat" data-name="PEGI repeat"><rect class="cls-1" width="122.95" height="122.95"/></g><path class="cls-2" d="M43.28,105.49H24.1V38.85H11.56V27.53c8.61.13,14.26-3.44,17.34-11.8H43.28Z"/><path class="cls-2" d="M108.69,87.29v18.2h-47V86.43C83.12,57.29,90,52.37,90,41.18c0-4.55-1.72-7.25-5-7.25-4.55,0-5.53,3.56-5.53,7.62v5.29h-18v-5.9C61.47,27,68.24,15.73,85,15.73c16,0,24.71,10.08,24.71,26.19,0,19.18-16.23,31.72-27.29,45.37Z"/><g id="border"><path class="cls-2" d="M0,0V150H123V0ZM120.49,120.49H2.46V2.46h118Z"/></g><path id="TM" class="cls-2" d="M110.11,4.92v.91h-2V12H107V5.83h-2V4.92ZM118,12h-1.14V6.42h0l-2,5.57H114L112.1,6.42h0V12h-1.15V4.92h1.82l1.76,5.26h0l1.72-5.26H118Z"/><g id="www.pegi.info"><polygon class="cls-3" points="7.81 140.51 9.89 140.51 11.81 131.18 11.85 131.18 13.86 140.51 15.81 140.51 18.52 129.09 16.65 129.09 14.88 138.43 14.83 138.43 12.94 129.09 10.83 129.09 8.89 138.43 8.85 138.43 7.02 129.09 5.14 129.09 7.81 140.51 7.81 140.51"/><polygon class="cls-3" points="21.61 140.51 23.7 140.51 25.61 131.18 25.66 131.18 27.66 140.51 29.62 140.51 32.32 129.09 30.45 129.09 28.68 138.43 28.64 138.43 26.74 129.09 24.64 129.09 22.7 138.43 22.65 138.43 20.82 129.09 18.95 129.09 21.61 140.51 21.61 140.51"/><polygon class="cls-3" points="35.41 140.51 37.5 140.51 39.42 131.18 39.46 131.18 41.46 140.51 43.42 140.51 46.13 129.09 44.25 129.09 42.49 138.43 42.44 138.43 40.55 129.09 38.44 129.09 36.5 138.43 36.46 138.43 34.63 129.09 32.75 129.09 35.41 140.51 35.41 140.51"/><polygon class="cls-3" points="47.13 140.51 49.09 140.51 49.09 138.25 47.13 138.25 47.13 140.51 47.13 140.51"/><path class="cls-4" d="M53.52,134.8c0-2.6.32-4.47,2.3-4.47,1.67,0,2.09,1.75,2.09,4.26,0,2.94-.42,4.69-2.09,4.69-1.91,0-2.3-2.26-2.3-4.48Zm-1.68,9.46h1.79v-5h0a2.6,2.6,0,0,0,2.39,1.6c3,0,3.72-3.62,3.72-6.22,0-3.39-1-5.79-3.72-5.79a2.58,2.58,0,0,0-2.47,1.7h-.05v-1.41h-1.7v15.17Z"/><path class="cls-4" d="M63.26,133.61v-.43c0-.67.21-3,2.09-3,1.57,0,2,1.51,2,2.79v.62ZM69.2,135v-.73c0-2.45-.32-5.49-3.81-5.49s-4.07,3.3-4.07,6.16c0,3.91,1.17,5.85,4,5.85a3.86,3.86,0,0,0,3.83-4.05H67.33c0,.85-.24,2.65-1.94,2.65-2.2,0-2.2-2.65-2.2-4.39Z"/><path class="cls-4" d="M74.69,130.33c1.92,0,2.3,2.26,2.3,4.47S76.61,139,74.67,139c-1.78,0-2.07-2.32-2.07-4.18,0-2.72.43-4.47,2.09-4.47Zm4-1.24H77v1.45h0a2.58,2.58,0,0,0-2.47-1.74c-2.9,0-3.73,2.91-3.73,6,0,1.52.21,5.71,3.54,5.71A2.72,2.72,0,0,0,76.84,139h0v1.49c0,.79.08,2.55-2.22,2.55-.94,0-1.75-.4-1.83-1.44H71.05c.3,2.85,3,2.85,3.74,2.85,2.31,0,3.88-1.24,3.88-4.65V129.09Z"/><path class="cls-4" d="M81.13,140.51h1.79V129.09H81.13v11.42Zm0-13.16h1.79v-2H81.13v2Z"/><polygon class="cls-3" points="85.77 140.51 87.73 140.51 87.73 138.25 85.77 138.25 85.77 140.51 85.77 140.51"/><path class="cls-4" d="M90.58,140.51h1.79V129.09H90.58v11.42Zm0-13.16h1.79v-2H90.58v2Z"/><path class="cls-3" d="M94.82,140.51H96.6v-7.88a2.21,2.21,0,0,1,2.27-2.3c1.61,0,1.68,1.43,1.68,2.3v7.88h1.79v-8.09c0-1.34,0-3.62-3-3.62a3,3,0,0,0-2.76,1.64h0v-1.35h-1.7v11.42Z"/><path class="cls-3" d="M105.21,140.51H107v-10H109v-1.41H107v-1.34c0-.78.38-1.08,1.14-1.08H109v-1.53h-1.29c-1.73,0-2.48.89-2.48,2.61v1.34h-1.66v1.41h1.66v10Z"/><path class="cls-4" d="M109.64,134.8c0,3.22.81,6,4.11,6s4.11-2.79,4.11-6-.81-6-4.11-6-4.11,2.79-4.11,6Zm4.07,4.61c-1.83,0-2.19-2.14-2.19-4.61s.38-4.6,2.19-4.6,2.28,2.13,2.28,4.6-.38,4.61-2.28,4.61Z"/></g></g></g></svg>